HIERARCHY
ROOT base
{
	OFFSET 0.0 0.0 0.0
	CHANNELS 6 Xposition Yposition Zposition Zrotation Yrotation Xrotation
	JOINT root
	{
		OFFSET 0 0 0
		CHANNELS 6 Xposition Yposition Zposition Zrotation Yrotation Xrotation
		JOINT chest
		{
			OFFSET 0 4.72302 0
			CHANNELS 3 Zrotation Yrotation Xrotation
			JOINT neck
			{
				OFFSET 0 4.47788 0
				CHANNELS 3 Zrotation Yrotation Xrotation
				End Site
				{
					OFFSET 0.0 0.0 0.0
				}
			}
			JOINT right_shoulder
			{
				OFFSET -0.481 4.87 3.6622
				CHANNELS 3 Zrotation Yrotation Xrotation
				JOINT right_elbow
				{
					OFFSET 0 -5.49576 0
					CHANNELS 3 Zrotation Yrotation Xrotation
					JOINT right_wrist
					{
						OFFSET 0 -5.17894 0
						CHANNELS 3 Zrotation Yrotation Xrotation
						End Site
						{
							OFFSET 0.0 0.0 0.0
						}
					}
				}
			}
			JOINT left_shoulder
			{
				OFFSET -0.481 4.87 -3.6622
				CHANNELS 3 Zrotation Yrotation Xrotation
				JOINT left_elbow
				{
					OFFSET 0 -5.49576 0
					CHANNELS 3 Zrotation Yrotation Xrotation
					JOINT left_wrist
					{
						OFFSET 0 -5.17894 0
						CHANNELS 3 Zrotation Yrotation Xrotation
						End Site
						{
							OFFSET 0.0 0.0 0.0
						}
					}
				}
			}
		}
		JOINT right_hip
		{
			OFFSET 0 0 1.69774
			CHANNELS 3 Zrotation Yrotation Xrotation
			JOINT right_knee
			{
				OFFSET 0 -8.43092 0
				CHANNELS 3 Zrotation Yrotation Xrotation
				JOINT right_ankle
				{
					OFFSET 0 -8.1974 0
					CHANNELS 3 Zrotation Yrotation Xrotation
					End Site
					{
						OFFSET 0.0 0.0 0.0
					}
				}
			}
		}
		JOINT left_hip
		{
			OFFSET 0 0 -1.69774
			CHANNELS 3 Zrotation Yrotation Xrotation
			JOINT left_knee
			{
				OFFSET 0 -8.43092 0
				CHANNELS 3 Zrotation Yrotation Xrotation
				JOINT left_ankle
				{
					OFFSET 0 -8.1974 0
					CHANNELS 3 Zrotation Yrotation Xrotation
					End Site
					{
						OFFSET 0.0 0.0 0.0
					}
				}
			}
		}
	}
	JOINT red_arrow
	{
		OFFSET 0 0 0
		CHANNELS 3 Zrotation Yrotation Xrotation
		End Site
		{
			OFFSET 0.0 0.0 0.0
		}
	}
	JOINT blue_arrow
	{
		OFFSET 0 0 0
		CHANNELS 3 Zrotation Yrotation Xrotation
		End Site
		{
			OFFSET 0.0 0.0 0.0
		}
	}
}
MOTION
Frames: 17
Frame Time: 0.0333333333333333
0 18.08466 0 0 0 0 0 0 0 0 -90 0 0 0 0 0 0 0 0 0 -90 0 0 0 0 0 0 0 0 90 0 0 0 0 0 0 0 0 0 0 0 0 0 0 0 0 0 0 0 0 0 0 0 0 0 0 0 0 0 0
1.86199086308479 0 -0.0579306505620479 0 -5.86513133430221 0 0 15.9097935676575 0 -24.2555016217867 -3.18055468146352E-15 -9.23715901443516 -4.51148334290771 4.0071710964552 7.72535207750543 2.52793803952335 -1.85120496555186 0.737391482453765 -5.55920981386872 16.8252565422198 -30.6868866457307 80.8433621106999 0 0 0 0 0 -15.2520185670765 -17.9404759919886 35.3412014420911 73.5084902629149 0 0 0 0 0 51.2445861734994 -2.18416590159249 9.48249463075605 -48.1550602902593 0 0 21.3587006827559 3.44157154283074 -1.02723346326321 26.206376269818 5.74977909521453 13.5703681099777 -86.1705135123379 0 0 -2.3016819379677 3.87251567881988 -17.8029692889435 0 0 0 0 0 0
3.75039654374123 0 -0.293083415925503 0 -6.00679481070422 0 0 16.0480315208435 0 -25.7886605946811 -2.42387262223449 -7.57431525142677 -4.39117534423672 8.25629397759637 4.09761375269371 4.52689015107218 -2.44652999395358 0.956077415096001 9.19699627304098 24.5742477812592 -32.7885340897007 84.7974474136795 0 0 0 0 0 -27.4527964264756 -13.8862572141063 36.3993560105203 66.0900510506348 0 0 0 0 0 44.9180131891678 -0.817499132503319 7.98795915834601 -45.8770795039388 0 0 27.0630383408234 6.78870641176435 0.052746001945165 44.2429742094888 2.71664502880297 15.0389464020708 -89.1498488584867 0 0 3.48090263270104 6.07119159100875 -19.0599452378745 0 0 0 0 0 0
5.87068856954575 0 -0.657229113578796 0 -6.10020291508789 0 0 16.2466512441635 0 -25.4829796846876 -1.60218856673233 -5.09305104701475 -6.25991627012333 10.2744364895554 0.149523660241257 7.75691846987707 -1.93086834924867 1.30492401995037 25.0057208123838 33.0469698605238 -35.5985873497208 90.0737070758118 0 0 0 0 0 -41.0555623998769 -10.2335969422503 37.9671027943921 56.8659078972892 0 0 0 0 0 33.1794766913677 0.97046538712998 3.47251006502247 -38.1387039856515 0 0 30.8973536451362 7.70848934711202 1.99120079599202 61.0857693892533 -0.639195558660168 12.4991538858409 -89.7784926395055 0 0 10.4145702596426 8.90870204216438 -20.8874537353652 0 0 0 0 0 0
8.06587050557136 0 -1.07021758183837 0 -6.00328556730215 0 0 16.3426268339157 0 -25.6438909550003 1.66015816478881 -2.86261533514974 -7.87654261670991 10.65521797077 -3.10253104404596 10.7811182513437 -0.389027630313598 1.63364992552539 38.8642702613185 40.4970023654338 -38.5480101415971 96.1453286064137 0 0 0 0 0 -55.5323977376302 -5.01345822689669 39.4422503965423 52.32400285396 0 0 0 0 0 19.9873064991039 0.753620521090374 -1.74590749719736 -27.1150450426286 0 0 29.9835077516562 6.4246435272277 3.19757982286652 76.7066080595176 -2.46074415048438 6.77878792382486 -84.1125297040889 0 0 16.4940477594323 12.0334148297322 -23.7806482526827 0 0 0 0 0 0
10.2539713978767 0 -1.47640546876937 0 -5.70628649248943 0 0 16.4220574855804 0 -26.8263763616134 5.03898778113185 -1.79223802239642 -8.76833711967507 11.041625364627 -5.13132720122143 11.6553348597244 1.40274633040576 1.90690311810738 46.6037372156403 43.6271527247771 -41.2845135212144 101.663814097271 0 0 0 0 0 -66.2484167504373 1.41249340740858 39.2913162439711 51.929088146339 0 0 0 0 0 9.45555877373995 -0.622295156039764 -4.80293099651528 -18.1362337465334 0 0 19.3001365181991 4.52846821931106 2.95159796785446 87.1783653423861 -1.77602466800886 1.2953716977725 -72.8248771194558 0 0 20.0752343751776 14.4448332155434 -26.3814359203979 0 0 0 0 0 0
12.4658522307873 0 -1.86628752611578 0 -5.22407859419489 0 0 16.5018831253052 0 -28.2181065414324 8.08844707089392 -1.4962490178427 -9.30916744158871 10.8315492078263 -6.14739121892483 10.725208320269 2.66124640839083 2.00894304758692 47.6858357906305 42.5910529918148 -44.2965393087437 105.118148119059 0 0 0 0 0 -71.7747566941631 6.94739565682257 38.1318863985026 53.4178474042538 0 0 0 0 0 2.02009126604725 -3.54695576579509 -6.11064180485697 -12.0646352678199 0 0 -0.603243837405514 3.9281290546956 2.73596128976632 90.9992235444072 0.194958449951928 -3.20638875017084 -60.6308516017728 0 0 22.5207498099432 14.8378659199852 -26.4657273013255 0 0 0 0 0 0
14.7869880259037 0 -2.27347210273147 0 -4.63650085647493 0 0 16.4686605334282 0 -28.3922005840788 9.84913178736881 -1.02942803519859 -9.60258452282635 10.133567677051 -6.44794860673743 9.38335801941042 2.92189883877611 2.05835288565521 44.9165467833291 39.5482422225889 -45.6622261034504 105.55907098093 0 0 0 0 0 -72.2593407589676 10.724869508851 36.2599730236342 55.8535270132262 0 0 0 0 0 -3.70292788383886 -5.29990457335803 -6.79185417942791 -10.1571777298205 0 0 -19.4868646604749 1.54499286559004 7.54813186418301 88.9147687292925 2.30725738289978 -5.9065792494797 -50.491360646808 0 0 23.4549753158598 13.0440472517045 -24.5129501671668 0 0 0 0 0 0
17.2507463634014 0 -2.69180168770254 0 -4.03467091086839 0 0 16.2733201384544 0 -27.049637380696 10.21182936567 -0.242446169941296 -9.38160760193552 9.3427766300669 -6.46742840221894 8.67993193113214 2.07235757799698 2.51120414207573 38.6915313337144 35.7956553335461 -44.7929619043181 102.803219424424 0 0 0 0 0 -68.1733213673186 12.5421639540342 34.1874515390866 59.1442131175954 0 0 0 0 0 -7.07742540143428 -9.72127662554457 -7.97517534876068 -15.7964260878459 0 0 -28.9684772492949 0.70826146801736 14.059956575934 82.3859921122252 3.9467973986374 -6.74048655085814 -43.0401160359444 0 0 21.5636933523998 11.0474825243171 -23.3343480964299 0 0 0 0 0 0
19.8074046432972 0 -3.10512340217829 0 -3.47130591308877 0 0 15.9043344259262 0 -24.8173224531553 9.73527928337161 0.756990999284349 -8.50154907017231 8.40793620253695 -6.44363775464529 8.67941274627914 0.740465578184969 2.85774603278242 29.8451645760756 32.5899158554269 -42.1606598025399 97.7851135921612 0 0 0 0 0 -60.363846027612 12.548928687493 32.5083031300053 63.2887787361483 0 0 0 0 0 -7.81260546105422 -12.8574069081938 -10.0995642811897 -29.2568625927503 0 0 -30.623596471633 -1.24785005078457 15.8772301594233 73.0187650349888 5.26573711222028 -6.35613801795727 -37.8495991535578 0 0 18.3156540011765 9.56693133760986 -22.6444177046757 0 0 0 0 0 0
22.2918474137783 0 -3.49272117614746 0 -2.90118447358043 0 0 15.4259366512299 0 -23.0107640820157 9.98847769719856 1.5854684509963 -7.11954296924145 6.27993569626814 -6.12535664163041 9.08918967037704 -0.60861403873866 2.97392564401239 19.453493373428 30.0542263937634 -38.4037905107793 91.0864192240496 0 0 0 0 0 -49.8595337563761 10.6194364050378 31.5612588669479 67.7805638513479 0 0 0 0 0 -5.81463315766171 -13.422350235737 -12.3009874437201 -46.2727933436926 0 0 -28.7818744840375 -3.22179436010402 17.8844652828956 65.152158229233 9.02792855730562 -6.33173740604861 -37.2043511826667 0 0 0.553810148433894 11.0190575828992 -12.9843438961067 0 0 0 0 0 0
24.4090295374393 0 -3.85751586854458 0 -2.24809776257768 0 0 15.3528012871742 0 -23.3730426860775 11.4182986027924 2.15477914586619 -5.14298274315113 3.74936479658484 -5.14562799159104 8.06949514920524 -1.41505351114752 2.2832453330974 7.16020453937703 28.5519409864899 -35.1484241855876 82.5643102343546 0 0 0 0 0 -36.5322108684468 6.7018744075672 31.9641417376545 72.2798826652022 0 0 0 0 0 2.20347662049156 -12.1454285406836 -14.6294766027596 -63.286920924694 0 0 -25.6157392211614 -4.63552618219195 21.525341128059 61.4086473339835 12.2502761280324 -8.75635823943761 -44.8110099179048 0 0 6.78692875243854 8.64966094999103 8.07107538755439 0 0 0 0 0 0
26.3227518081665 0 -4.22800968438387 0 -1.5212710690283 0 0 15.775893497467 0 -24.3618182944957 12.6212857928284 2.68722719245882 -2.2723591901265 2.26966946501382 -2.96653644538397 5.20387340437083 -1.94606558215874 1.79870729204894 -6.48679154502701 26.9448954103626 -33.436557199887 73.6174249499874 0 0 0 0 0 -23.0732003334232 2.47149622813138 33.1081658412961 76.6228516187656 0 0 0 0 0 13.269098018806 -8.16010608823507 -16.5824824798214 -77.5919393487745 0 0 -20.6362940508234 -6.64769877417639 22.7946144192384 54.3074951503981 13.359033508189 -10.5625714372966 -44.9671070611963 0 0 14.1761755242987 5.23090098773491 8.28540159826484 0 0 0 0 0 0
28.2281139910221 0 -4.51271212771535 0 -0.863790838134334 0 0 16.2102940559387 0 -23.5794128368781 11.4779985235342 2.516346607617 -1.91793914126037 1.50360957938277 -1.07570534133371 4.3661197535013 -2.32096244892035 2.33756497423622 -17.0188230435848 22.991680206394 -34.3013092167104 68.901397894147 0 0 0 0 0 -5.63875486002712 -5.82695180339979 34.3666229819572 80.5039017089502 0 0 0 0 0 24.9472356429773 -4.05830173850146 -17.5672709726902 -86.4477508907488 0 0 -13.6856648418565 -9.10801867253496 22.473881064908 45.9343566853861 10.0732730178944 -9.91854983519523 -43.7192280847404 0 0 18.4346528140735 0.56987093392771 6.2318360147404 0 0 0 0 0 0
30.0423411250114 0 -4.7040629118681 0 -0.256248916679777 0 0 16.4650527596474 0 -23.2761872787185 10.6261015343059 0.87040730974696 -2.15165479570169 -2.02326408500428 1.5249880313675 3.4783316203871 -1.31471575043019 1.97803454834011 -28.3903794513313 18.6326446150541 -36.3324097172156 60.9983021187412 0 0 0 0 0 13.0177012519074 -16.0829955907632 35.2269763626681 84.3237806249282 0 0 0 0 0 40.5521435348866 -0.115260360872281 -16.3141223079895 -92.941696678111 0 0 -5.70315533652968 -11.3326238225016 22.2420444559466 37.7013534277716 6.15878718934813 -8.55901992053242 -40.1119729576249 0 0 22.7387636199736 -0.432106154903173 4.89129617611025 0 0 0 0 0 0
31.8679795265198 0 -4.85174915157259 0 0.252342069730875 0 0 16.5260684728622 0 -23.0266316231413 8.90615485087194 -1.69063591016445 -3.4186711481561 -5.85029604038965 5.25725470054423 1.86767422001947 0.351569736751664 1.36759524708831 -41.6622787313677 14.9735047093595 -39.0410168704778 50.5135041200972 0 0 0 0 0 32.4779723859158 -26.7392335074558 34.806063744906 87.9456455266784 0 0 0 0 0 58.737552180604 4.34359393785968 -11.9867552524632 -95.3692347015927 0 0 3.64903334489248 -13.0461029838265 21.1470300546561 28.0393883397978 3.11355535425133 -5.75894982282676 -33.5145873703774 0 0 28.1535080023761 0.397876189345167 4.14447524944771 0 0 0 0 0 0
33.8086416065693 0 -4.99607027173042 0 0.571929658306923 0 0 16.4809216856956 0 -22.656431450092 5.60669203343271 -4.12439995349139 -5.41721546872705 -9.21353917360878 9.41647660646159 0.38157194519303 2.16445740622391 0.822241699682983 -54.630448092503 9.67379072408741 -41.3230925318463 45.0596322187879 0 0 0 0 0 49.7211295619208 -35.4321585537221 32.6755470069015 91.5256140480597 0 0 0 0 0 76.1419517227582 7.83274324837266 -4.93173028981008 -90.1515029304582 0 0 12.2946108641839 -13.6793971501387 20.0324709589783 17.4751538855551 2.48052017911955 -2.33083093282559 -26.0384552577255 0 0 30.1291122729987 2.13689164484627 3.71143119322064 0 0 0 0 0 0
